<?xml version="1.0" encoding="utf-8"?>
<!-- Generator: Adobe Illustrator 18.1.1, SVG Export Plug-In . SVG Version: 6.00 Build 0)  -->
<svg version="1.1" id="Layer_1" xmlns="http://www.w3.org/2000/svg" xmlns:xlink="http://www.w3.org/1999/xlink" x="0px" y="0px"
	 viewBox="-589 311 100 100" enable-background="new -589 311 100 100" xml:space="preserve">
<g id="Captions">
</g>
<g id="Your_Icon">
	<path d="M-488.8,340.7c0-3.7-0.8-5-4.7-5h-67.6l-2-12.6c-0.3-3.7-2.1-5-6.1-5h-15.1c-3.7,0-5,1.2-5,5v2.5c0,3.9,1.3,5,5,5h9.4
		l8.2,47.7c0.9,2.6,3.3,4.9,7.5,5h55.3c4.4,0,6.5-0.9,7.5-5L-488.8,340.7z M-506.5,370.8h-49.7l-3.7-22.6h57.7L-506.5,370.8z
		 M-556.7,401c0,5.6,4.5,10.1,10.1,10.1c5.6,0,10.1-4.5,10.1-10.1s-4.5-10.1-10.1-10.1C-552.2,390.9-556.7,395.4-556.7,401z
		 M-524,401c0,5.6,4.5,10.1,10.1,10.1c5.6,0,10.1-4.5,10.1-10.1s-4.5-10.1-10.1-10.1C-519.5,390.9-524,395.4-524,401z"/>
</g>
</svg>
