<?xml version="1.0" encoding="utf-8"?>
<!-- Generator: Adobe Illustrator 18.1.1, SVG Export Plug-In . SVG Version: 6.00 Build 0)  -->
<svg version="1.1" id="Your_Icon" xmlns="http://www.w3.org/2000/svg" xmlns:xlink="http://www.w3.org/1999/xlink" x="0px" y="0px"
	 viewBox="-615 337 48 48" enable-background="new -615 337 48 48" xml:space="preserve">
<path d="M-591,364.5c1.9,0,3.5-1.6,3.5-3.5s-1.6-3.5-3.5-3.5c-1.9,0-3.5,1.6-3.5,3.5S-593,364.5-591,364.5z M-583.4,354.2
	c1.1,0,1.9-0.9,1.9-1.9c0-1.1-0.9-1.9-1.9-1.9c-1.1,0-1.9,0.9-1.9,1.9C-585.4,353.3-584.5,354.2-583.4,354.2z M-584,361
	c0,3.9-3.1,7-7,7s-7-3.1-7-7c0-0.8,0.1-1.6,0.4-2.3h-3.4v9.5c0,1.6,1.3,3,3,3h13.6c1.6,0,3-1.3,3-3v-12.5h-4.9
	C-585,356.9-584,358.8-584,361z M-591,337c-13.2,0-24,10.7-24,24c0,13.2,10.7,24,24,24s24-10.7,24-24
	C-567.1,347.7-577.8,337-591,337z M-578.2,370.7c0,2.2-1.8,4-4,4h-18.1c-2.2,0-4-1.8-4-4v-18.1c0-2.2,1.8-4,4-4h18.1
	c2.2,0,4,1.8,4,4L-578.2,370.7L-578.2,370.7z"/>
</svg>
