<?xml version="1.0" encoding="utf-8"?>
<!-- Generator: Adobe Illustrator 18.1.1, SVG Export Plug-In . SVG Version: 6.00 Build 0)  -->
<svg version="1.1" id="Layer_1" xmlns="http://www.w3.org/2000/svg" xmlns:xlink="http://www.w3.org/1999/xlink" x="0px" y="0px"
	 viewBox="-556.1 328.5 36.4 34.8" enable-background="new -556.1 328.5 36.4 34.8" xml:space="preserve">
<path d="M-529.4,350.8L-529.4,350.8c3.8-5.7,2.9-13.1-1.9-18.1c-2.8-2.8-6.3-4.2-10.2-4.2s-7.5,1.5-10.3,4.2
	c-5.7,5.7-5.6,14.8-0.1,20.4c2.8,2.8,6.3,4.2,10.3,4.2c2.9,0,5.6-0.8,7.9-2.2l6.9,6.9c1.5,1.5,3.9,1.5,5.5,0l1.6-1.6L-529.4,350.8z
	 M-547.5,348.8c-3.1-3.1-3.2-8.1-0.3-11.4c0.1-0.2,0.2-0.2,0.3-0.3c1.6-1.5,3.6-2.5,5.9-2.5s4.3,0.8,5.9,2.5c3.2,3.2,3.2,8.5,0,11.7
	c-1.5,1.5-3.6,2.5-5.9,2.5S-545.9,350.3-547.5,348.8z"/>
</svg>
